<svg width="294" height="62" viewBox="0 0 294 62" fill="none" xmlns="http://www.w3.org/2000/svg">
<g clip-path="url(#clip0_1864_738)">
<path d="M0.00120123 49.1716C0.00120123 36.8191 0.000309836 24.4675 0.00207816 12.115C22.1052 12.115 44.2093 12.115 66.3125 12.115C62.5185 18.2903 58.7299 24.4701 54.9351 30.6437C58.7272 36.8191 62.5176 42.9962 66.3098 49.1725C44.2066 49.1707 22.1044 49.1724 0.00120123 49.1716ZM3.07189 20.6964C12.8622 20.6982 22.6534 20.6973 32.4438 20.6973C32.4438 18.8532 32.4438 17.0092 32.4438 15.1643C22.6534 15.1634 12.864 15.166 3.07367 15.1634C3.07013 17.0074 3.07366 18.8524 3.07189 20.6964ZM36.0211 15.1651C37.2014 17.0754 38.3588 19.0006 39.5507 20.9046C45.4763 20.8932 51.4011 20.9038 57.3267 20.8985C58.4965 18.9865 59.6742 17.0789 60.8439 15.166C52.5699 15.1625 44.2951 15.1651 36.0211 15.1651ZM35.5145 20.1961C35.5136 23.2172 35.5171 26.2383 35.5127 29.2593C35.5171 29.3767 35.4968 29.5064 35.5755 29.6061C38.9556 35.1171 42.3305 40.6316 45.7097 46.1426C47.6107 46.1417 49.5107 46.1434 51.4099 46.1417C46.1103 37.4941 40.8106 28.8464 35.5145 20.1961ZM3.06835 23.7528C3.07631 25.521 3.071 27.2891 3.07189 29.0573C12.8622 29.0591 22.6525 29.0582 32.4438 29.0582C32.4438 27.2874 32.4446 25.5174 32.4438 23.7466C22.6517 23.7501 12.8596 23.7387 3.06835 23.7528ZM41.3941 23.9284C42.4401 25.6392 43.4861 27.35 44.5356 29.0582C47.1315 29.0546 49.7265 29.0635 52.3224 29.0538C53.3648 27.3421 54.4196 25.6383 55.4665 23.9284C50.776 23.9284 46.0855 23.9284 41.3941 23.9284ZM3.07189 32.0881C3.07189 36.7723 3.07189 41.4574 3.07189 46.1417C16.0868 46.1426 29.1007 46.1443 42.1156 46.1408C39.2403 41.4574 36.3783 36.7653 33.4968 32.0845C23.3555 32.0916 13.2141 32.0845 3.07189 32.0881ZM46.3914 32.0881C49.2535 36.7714 52.1332 41.4433 54.9864 46.132C56.9412 46.1558 58.8961 46.1364 60.8501 46.1426C57.9757 41.453 55.1022 36.7644 52.2145 32.0828C50.2747 32.0934 48.333 32.0828 46.3914 32.0881Z" fill="#27D29C"/>
<path d="M6.46888 34.9953C14.4971 34.9953 22.5244 34.9953 30.5517 34.9953C30.5508 36.0047 30.5526 37.0149 30.5508 38.0252C22.5244 38.0243 14.4971 38.0234 6.47065 38.0252C6.46712 37.0158 6.46977 36.0047 6.46888 34.9953Z" fill="#27D29C"/>
<path d="M6.46923 40.1234C14.4974 40.1251 22.5238 40.1234 30.5512 40.1243C30.5512 41.1407 30.5512 42.158 30.5512 43.1736C22.5238 43.1736 14.4965 43.1736 6.46836 43.1736C6.46836 42.1571 6.46658 41.1407 6.46923 40.1234Z" fill="#27D29C"/>
</g>
<path d="M93.0117 40.1033C92.8706 40.1033 92.7437 40.0538 92.6308 39.955C92.5321 39.8561 92.4827 39.729 92.4827 39.5737V38.1121C90.3812 38.1121 88.745 37.6461 87.5744 36.7141C86.4037 35.7679 85.7408 34.3628 85.5856 32.4987C85.5856 32.3857 85.5786 32.2304 85.5645 32.0327C85.5645 31.8209 85.5645 31.609 85.5645 31.3972C85.5786 31.1854 85.5856 31.03 85.5856 30.9312C85.6561 29.7026 85.9735 28.6717 86.5377 27.8385C87.116 26.9912 87.9129 26.3557 88.9284 25.9321C89.9439 25.4943 91.1287 25.2754 92.4827 25.2754V24.0468C92.4827 23.9056 92.5321 23.7856 92.6308 23.6867C92.7437 23.5738 92.8706 23.5173 93.0117 23.5173H95.7621C95.9031 23.5173 96.023 23.5738 96.1217 23.6867C96.2346 23.7856 96.291 23.9056 96.291 24.0468V25.2754C97.6591 25.2754 98.8439 25.4943 99.8453 25.9321C100.861 26.3557 101.658 26.9912 102.236 27.8385C102.814 28.6717 103.132 29.7026 103.188 30.9312C103.202 31.2419 103.209 31.5031 103.209 31.715C103.223 31.9127 103.216 32.1739 103.188 32.4987C103.047 34.3628 102.391 35.7679 101.221 36.7141C100.05 37.6461 98.4067 38.1121 96.291 38.1121V39.5737C96.291 39.729 96.2346 39.8561 96.1217 39.955C96.023 40.0538 95.9031 40.1033 95.7621 40.1033H93.0117ZM92.5039 35.0618V28.3257C91.5871 28.3257 90.8748 28.5376 90.3671 28.9612C89.8734 29.3849 89.5913 30.0627 89.5208 30.9947C89.5067 31.2348 89.4996 31.4678 89.4996 31.6938C89.4996 31.9056 89.5067 32.1315 89.5208 32.3716C89.5631 33.3036 89.8381 33.9886 90.3459 34.4263C90.8537 34.85 91.573 35.0618 92.5039 35.0618ZM96.2698 35.0618C97.2007 35.0618 97.92 34.85 98.4278 34.4263C98.9356 33.9886 99.2106 33.3036 99.2529 32.3716C99.267 32.2728 99.2741 32.1386 99.2741 31.9691C99.2741 31.7856 99.2741 31.602 99.2741 31.4184C99.2741 31.2348 99.267 31.0936 99.2529 30.9947C99.1824 30.0627 98.8933 29.3849 98.3855 28.9612C97.8918 28.5376 97.1866 28.3257 96.2698 28.3257V35.0618Z" fill="#414141"/>
<path d="M115.602 39.4254C115.446 39.4254 115.319 39.376 115.221 39.2771C115.122 39.1783 115.073 39.0512 115.073 38.8959V27.9868H111.137V29.9144C111.137 31.6232 111.053 33.0777 110.884 34.278C110.728 35.4643 110.439 36.4387 110.016 37.2013C109.607 37.9497 109.022 38.5005 108.26 38.8535C107.513 39.2065 106.546 39.3972 105.362 39.4254C105.221 39.4254 105.094 39.376 104.981 39.2771C104.868 39.1642 104.812 39.03 104.812 38.8747V36.6505C104.812 36.3398 104.988 36.1633 105.34 36.1209C105.735 36.0503 106.067 35.8456 106.335 35.5066C106.603 35.1677 106.821 34.7158 106.991 34.151C107.16 33.572 107.28 32.8871 107.35 32.0962C107.421 31.2913 107.456 30.4016 107.456 29.4272V25.1272C107.456 24.9718 107.506 24.8447 107.604 24.7459C107.717 24.647 107.851 24.5976 108.006 24.5976H118.331C118.486 24.5976 118.613 24.647 118.712 24.7459C118.81 24.8447 118.86 24.9718 118.86 25.1272V38.8959C118.86 39.0512 118.81 39.1783 118.712 39.2771C118.613 39.376 118.486 39.4254 118.331 39.4254H115.602Z" fill="#414141"/>
<path d="M120.969 39.4254C120.856 39.4254 120.75 39.3831 120.652 39.2983C120.567 39.1995 120.525 39.0936 120.525 38.9806C120.525 38.91 120.532 38.8464 120.546 38.7899L125.518 25.1907C125.56 25.0354 125.645 24.9012 125.772 24.7882C125.913 24.6611 126.103 24.5976 126.343 24.5976H129.474C129.714 24.5976 129.897 24.6611 130.024 24.7882C130.165 24.9012 130.257 25.0354 130.299 25.1907L135.25 38.7899C135.278 38.8464 135.292 38.91 135.292 38.9806C135.292 39.0936 135.243 39.1995 135.144 39.2983C135.059 39.3831 134.954 39.4254 134.827 39.4254H132.224C132.013 39.4254 131.851 39.376 131.738 39.2771C131.639 39.1642 131.576 39.0653 131.547 38.9806L130.722 36.82H125.073L124.269 38.9806C124.241 39.0653 124.178 39.1642 124.079 39.2771C123.98 39.376 123.811 39.4254 123.571 39.4254H120.969ZM125.941 33.7697H129.876L127.887 28.1775L125.941 33.7697Z" fill="#414141"/>
<path d="M137.489 39.4254C137.333 39.4254 137.207 39.376 137.108 39.2771C137.009 39.1783 136.96 39.0512 136.96 38.8959V25.1272C136.96 24.9718 137.009 24.8447 137.108 24.7459C137.207 24.647 137.333 24.5976 137.489 24.5976H146.607C146.762 24.5976 146.889 24.647 146.988 24.7459C147.087 24.8447 147.136 24.9718 147.136 25.1272V27.2454C147.136 27.4008 147.087 27.5349 146.988 27.6479C146.889 27.7467 146.762 27.7962 146.607 27.7962H140.747V38.8959C140.747 39.0512 140.697 39.1783 140.599 39.2771C140.5 39.376 140.373 39.4254 140.218 39.4254H137.489Z" fill="#414141"/>
<path d="M153.935 39.4254C153.78 39.4254 153.653 39.376 153.554 39.2771C153.455 39.1783 153.406 39.0512 153.406 38.8959V25.1272C153.406 24.9718 153.455 24.8447 153.554 24.7459C153.653 24.647 153.78 24.5976 153.935 24.5976H165.677C165.832 24.5976 165.959 24.647 166.058 24.7459C166.156 24.8447 166.206 24.9718 166.206 25.1272V38.8959C166.206 39.0512 166.156 39.1783 166.058 39.2771C165.959 39.376 165.832 39.4254 165.677 39.4254H162.948C162.792 39.4254 162.665 39.376 162.567 39.2771C162.468 39.1783 162.419 39.0512 162.419 38.8959V27.9868H157.193V38.8959C157.193 39.0512 157.144 39.1783 157.045 39.2771C156.946 39.376 156.819 39.4254 156.664 39.4254H153.935Z" fill="#414141"/>
<path d="M174.142 39.6373C172.957 39.6373 171.956 39.4466 171.138 39.0653C170.334 38.684 169.713 38.1403 169.276 37.4343C168.853 36.7141 168.613 35.8597 168.557 34.8712C168.543 34.5887 168.535 34.271 168.535 33.9179C168.535 33.5508 168.543 33.233 168.557 32.9647C168.613 31.9621 168.867 31.1077 169.318 30.4016C169.77 29.6955 170.397 29.1519 171.201 28.7706C172.019 28.3893 173 28.1986 174.142 28.1986C175.299 28.1986 176.279 28.3893 177.083 28.7706C177.901 29.1519 178.536 29.6955 178.987 30.4016C179.438 31.1077 179.692 31.9621 179.749 32.9647C179.763 33.233 179.77 33.5508 179.77 33.9179C179.77 34.271 179.763 34.5887 179.749 34.8712C179.692 35.8597 179.445 36.7141 179.008 37.4343C178.585 38.1403 177.964 38.684 177.146 39.0653C176.342 39.4466 175.341 39.6373 174.142 39.6373ZM174.142 37.053C174.777 37.053 175.235 36.8623 175.517 36.481C175.813 36.0998 175.983 35.5278 176.025 34.7652C176.039 34.5534 176.046 34.271 176.046 33.9179C176.046 33.5649 176.039 33.2825 176.025 33.0706C175.983 32.3222 175.813 31.7573 175.517 31.376C175.235 30.9806 174.777 30.7829 174.142 30.7829C173.521 30.7829 173.063 30.9806 172.767 31.376C172.471 31.7573 172.308 32.3222 172.28 33.0706C172.266 33.2825 172.259 33.5649 172.259 33.9179C172.259 34.271 172.266 34.5534 172.28 34.7652C172.308 35.5278 172.471 36.0998 172.767 36.481C173.063 36.8623 173.521 37.053 174.142 37.053Z" fill="#414141"/>
<path d="M182.379 39.4254C182.224 39.4254 182.097 39.376 181.999 39.2771C181.9 39.1783 181.851 39.0512 181.851 38.8959V28.94C181.851 28.7847 181.9 28.6576 181.999 28.5587C182.097 28.4599 182.224 28.4105 182.379 28.4105H184.813C184.968 28.4105 185.095 28.4599 185.193 28.5587C185.292 28.6576 185.341 28.7847 185.341 28.94V32.4563H186.484L188.79 28.7494C188.832 28.6788 188.903 28.6082 189.002 28.5376C189.1 28.4528 189.227 28.4105 189.382 28.4105H192.09C192.217 28.4105 192.323 28.4528 192.408 28.5376C192.507 28.6082 192.556 28.707 192.556 28.8341C192.556 28.8765 192.542 28.9259 192.514 28.9824C192.5 29.0389 192.478 29.0883 192.45 29.1307L189.552 33.7485L192.937 38.7264C192.993 38.8111 193.021 38.9029 193.021 39.0018C193.021 39.1289 192.979 39.2348 192.894 39.3195C192.81 39.3901 192.697 39.4254 192.556 39.4254H189.573C189.418 39.4254 189.291 39.3972 189.192 39.3407C189.107 39.2701 189.03 39.1854 188.959 39.0865L186.442 35.2313H185.341V38.8959C185.341 39.0512 185.292 39.1783 185.193 39.2771C185.095 39.376 184.968 39.4254 184.813 39.4254H182.379Z" fill="#414141"/>
<path d="M195.739 43.4713C195.584 43.4713 195.45 43.4148 195.337 43.3018C195.238 43.203 195.189 43.083 195.189 42.9417V41.226C195.189 41.0706 195.238 40.9435 195.337 40.8447C195.45 40.7458 195.584 40.6964 195.739 40.6964H196.458C196.726 40.6964 196.945 40.647 197.114 40.5481C197.283 40.4493 197.431 40.2869 197.558 40.0609C197.699 39.8491 197.848 39.5525 198.003 39.1712L202.234 28.8553C202.276 28.7282 202.347 28.6223 202.446 28.5376C202.544 28.4528 202.685 28.4105 202.869 28.4105H205.133C205.259 28.4105 205.365 28.4599 205.45 28.5587C205.549 28.6435 205.598 28.7423 205.598 28.8553C205.598 28.8835 205.591 28.9259 205.577 28.9824C205.577 29.0248 205.563 29.0742 205.534 29.1307L201.515 38.8323C201.233 39.5243 200.936 40.1527 200.626 40.7176C200.33 41.2824 200.006 41.7696 199.653 42.1792C199.3 42.6028 198.884 42.9206 198.405 43.1324C197.939 43.3583 197.396 43.4713 196.776 43.4713H195.739ZM198.235 39.1924L193.898 29.1307C193.856 29.0318 193.835 28.9471 193.835 28.8765C193.863 28.7494 193.919 28.6435 194.004 28.5587C194.089 28.4599 194.201 28.4105 194.343 28.4105H196.712C196.895 28.4105 197.029 28.4599 197.114 28.5587C197.213 28.6435 197.283 28.7423 197.326 28.8553L200.351 36.6081L198.235 39.1924Z" fill="#414141"/>
<path d="M207.751 39.4254C207.596 39.4254 207.469 39.376 207.37 39.2771C207.272 39.1783 207.222 39.0512 207.222 38.8959V28.94C207.222 28.7847 207.272 28.6576 207.37 28.5587C207.469 28.4599 207.596 28.4105 207.751 28.4105H217.441C217.596 28.4105 217.723 28.4599 217.822 28.5587C217.921 28.6576 217.97 28.7847 217.97 28.94V38.8959C217.97 39.0512 217.921 39.1783 217.822 39.2771C217.723 39.376 217.596 39.4254 217.441 39.4254H214.944C214.803 39.4254 214.677 39.376 214.564 39.2771C214.465 39.1783 214.416 39.0512 214.416 38.8959V31.1854H210.777V38.8959C210.777 39.0512 210.72 39.1783 210.607 39.2771C210.509 39.376 210.389 39.4254 210.248 39.4254H207.751Z" fill="#414141"/>
<path d="M221.077 39.4254C220.922 39.4254 220.795 39.376 220.697 39.2771C220.598 39.1783 220.549 39.0512 220.549 38.8959V28.94C220.549 28.7847 220.598 28.6576 220.697 28.5587C220.795 28.4599 220.922 28.4105 221.077 28.4105H223.511C223.666 28.4105 223.793 28.4599 223.891 28.5587C223.99 28.6576 224.039 28.7847 224.039 28.94V32.4563H225.182L227.488 28.7494C227.53 28.6788 227.601 28.6082 227.7 28.5376C227.798 28.4528 227.925 28.4105 228.08 28.4105H230.788C230.915 28.4105 231.021 28.4528 231.106 28.5376C231.205 28.6082 231.254 28.707 231.254 28.8341C231.254 28.8765 231.24 28.9259 231.212 28.9824C231.198 29.0389 231.176 29.0883 231.148 29.1307L228.25 33.7485L231.635 38.7264C231.691 38.8111 231.719 38.9029 231.719 39.0018C231.719 39.1289 231.677 39.2348 231.592 39.3195C231.508 39.3901 231.395 39.4254 231.254 39.4254H228.271C228.116 39.4254 227.989 39.3972 227.89 39.3407C227.805 39.2701 227.728 39.1854 227.657 39.0865L225.14 35.2313H224.039V38.8959C224.039 39.0512 223.99 39.1783 223.891 39.2771C223.793 39.376 223.666 39.4254 223.511 39.4254H221.077Z" fill="#414141"/>
<path d="M233.887 39.4254C233.746 39.4254 233.626 39.376 233.527 39.2771C233.428 39.1783 233.379 39.0583 233.379 38.917V28.94C233.379 28.7847 233.428 28.6576 233.527 28.5587C233.626 28.4599 233.753 28.4105 233.908 28.4105H236.404C236.546 28.4105 236.665 28.4599 236.764 28.5587C236.877 28.6576 236.933 28.7847 236.933 28.94V36.6717L235.981 36.2057L241.207 28.7494C241.278 28.6505 241.362 28.5729 241.461 28.5164C241.56 28.4458 241.673 28.4105 241.799 28.4105H244.063C244.204 28.4105 244.324 28.4599 244.423 28.5587C244.522 28.6576 244.571 28.7776 244.571 28.9188V38.8959C244.571 39.0512 244.522 39.1783 244.423 39.2771C244.324 39.376 244.197 39.4254 244.042 39.4254H241.546C241.39 39.4254 241.263 39.376 241.165 39.2771C241.066 39.1783 241.017 39.0512 241.017 38.8959V31.3972L241.99 31.5879L236.722 39.0865C236.665 39.1854 236.588 39.2701 236.489 39.3407C236.39 39.3972 236.27 39.4254 236.129 39.4254H233.887Z" fill="#414141"/>
<defs>
<clipPath id="clip0_1864_738">
<rect width="66.3121" height="37.0575" fill="white" transform="translate(0 12.115)"/>
</clipPath>
</defs>
</svg>
